<?xml version="1.0" encoding="utf-8"?>
<!-- Generator: Adobe Illustrator 16.0.3, SVG Export Plug-In . SVG Version: 6.00 Build 0)  -->
<!DOCTYPE svg PUBLIC "-//W3C//DTD SVG 1.1//EN" "http://www.w3.org/Graphics/SVG/1.1/DTD/svg11.dtd">
<svg version="1.1" id="Layer_1" xmlns="http://www.w3.org/2000/svg" xmlns:xlink="http://www.w3.org/1999/xlink" x="0px" y="0px"
	 width="640px" height="215.648px" viewBox="0 0 640 215.648" enable-background="new 0 0 640 215.648" xml:space="preserve">
<g>
	<path fill="#3A3F48" d="M17.426,138.188c-8.154-5.145-12.229-13.017-12.229-23.616c0-5.604,0.967-9.883,2.904-12.84
		c1.935-2.954,4.789-4.433,8.56-4.433c2.751,0,4.992,0.714,6.726,2.14c1.731,1.429,2.599,3.263,2.599,5.503
		c0,2.04-0.153,3.822-0.458,5.35c0,0.409-0.077,1.123-0.229,2.14c-0.153,1.02-0.229,2.09-0.229,3.21
		c0,4.586,2.316,8.001,6.955,10.242c4.636,2.243,11.132,3.363,19.49,3.363c8.66,0,15.438-1.553,20.33-4.662
		c4.891-3.107,7.337-7.464,7.337-13.069c0-3.463-1.123-6.444-3.363-8.942c-2.243-2.496-5.044-4.586-8.407-6.267
		c-3.363-1.682-8.102-3.745-14.216-6.191c-7.848-3.057-14.242-5.961-19.184-8.713c-4.944-2.751-9.171-6.496-12.687-11.235
		s-5.273-10.624-5.273-17.655c0-7.337,1.96-13.857,5.885-19.565c3.922-5.706,9.578-10.139,16.967-13.299
		c7.387-3.157,16.074-4.738,26.062-4.738c7.438,0,14.266,1.096,20.483,3.286c6.215,2.193,11.183,5.529,14.904,10.012
		c3.719,4.485,5.579,9.988,5.579,16.509c0,6.42-0.97,11.261-2.904,14.521c-1.937,3.262-4.791,4.891-8.56,4.891
		c-2.651,0-4.867-0.814-6.649-2.445c-1.784-1.629-2.675-3.566-2.675-5.809c0-1.935,0.153-3.719,0.458-5.35
		c0.306-3.057,0.458-4.992,0.458-5.809c0-4.28-2.09-7.541-6.267-9.783c-4.18-2.24-9.376-3.363-15.591-3.363
		c-8.766,0-15.465,1.605-20.101,4.815c-4.639,3.21-6.955,7.72-6.955,13.528c0,3.874,1.196,7.184,3.592,9.936
		c2.394,2.751,5.374,5.044,8.942,6.878c3.566,1.834,8.56,4.027,14.98,6.573c7.743,3.16,13.96,6.014,18.649,8.56
		c4.686,2.549,8.687,6.014,11.999,10.395c3.311,4.383,4.968,9.783,4.968,16.203c0,12.025-4.562,21.273-13.681,27.744
		c-9.121,6.472-21.324,9.706-36.609,9.706C36.431,145.907,25.578,143.334,17.426,138.188z"/>
	<path fill="#3A3F48" d="M116.861,138.417c-3.007-4.686-4.51-10.903-4.51-18.649c0-4.585,0.585-10.471,1.758-17.655
		c1.17-7.185,2.675-13.884,4.509-20.101c0.917-3.26,2.14-5.503,3.668-6.726c1.528-1.223,3.974-1.834,7.337-1.834
		c5.197,0,7.796,1.734,7.796,5.197c0,2.549-0.97,8.46-2.904,17.731c-2.446,11.211-3.668,18.802-3.668,22.776
		c0,3.057,0.406,5.403,1.223,7.032c0.814,1.631,2.19,2.446,4.127,2.446c1.834,0,4.127-1.273,6.878-3.822
		c2.751-2.546,6.42-6.573,11.006-12.076c1.223-1.426,2.599-2.14,4.127-2.14c1.323,0,2.369,0.612,3.134,1.834
		c0.764,1.223,1.146,2.904,1.146,5.044c0,4.077-0.97,7.237-2.904,9.477c-10.089,12.331-19.516,18.496-28.279,18.496
		C124.68,145.448,119.865,143.105,116.861,138.417z M122.898,60.383c-2.14-1.987-3.21-4.763-3.21-8.331
		c0-3.566,1.399-6.546,4.204-8.942c2.802-2.394,6.291-3.592,10.471-3.592c3.769,0,6.826,0.917,9.171,2.751
		c2.343,1.834,3.516,4.433,3.516,7.796c0,4.077-1.325,7.313-3.974,9.706c-2.651,2.396-6.167,3.592-10.547,3.592
		C128.249,63.364,125.039,62.37,122.898,60.383z"/>
	<path fill="#3A3F48" d="M152.78,139.334c-1.581-4.075-2.369-10.597-2.369-19.566c0-13.246,1.884-25.833,5.656-37.755
		c0.917-2.955,2.419-5.121,4.509-6.497c2.087-1.376,5.018-2.063,8.789-2.063c2.038,0,3.463,0.255,4.28,0.764
		c0.814,0.511,1.223,1.479,1.223,2.904c0,1.631-0.764,5.3-2.293,11.006c-1.02,4.077-1.834,7.619-2.446,10.624
		c-0.611,3.007-1.123,6.752-1.528,11.235c2.751-7.949,6.038-14.674,9.859-20.177c3.821-5.503,7.743-9.604,11.77-12.305
		c4.024-2.699,7.819-4.05,11.388-4.05c3.566,0,6.088,0.816,7.566,2.445c1.476,1.631,2.217,4.127,2.217,7.49
		c0,3.263-0.97,9.171-2.904,17.731c-0.817,3.668-1.376,6.42-1.682,8.254c5.094-12.534,10.75-21.653,16.967-27.361
		c6.214-5.706,12.023-8.56,17.426-8.56c6.623,0,9.936,3.313,9.936,9.936c0,3.974-1.123,11.159-3.363,21.553
		c-1.937,8.866-2.904,14.727-2.904,17.579c0,4.077,1.476,6.115,4.433,6.115c2.038,0,4.457-1.247,7.261-3.745
		c2.802-2.496,6.547-6.547,11.235-12.152c1.223-1.426,2.599-2.14,4.127-2.14c1.323,0,2.37,0.612,3.134,1.834
		s1.146,2.904,1.146,5.044c0,4.077-0.97,7.237-2.904,9.477c-4.383,5.402-9.095,9.835-14.14,13.298
		c-5.044,3.466-10.776,5.197-17.196,5.197c-5.197,0-9.121-1.502-11.77-4.509c-2.651-3.004-3.974-7.361-3.974-13.069
		c0-2.852,0.711-7.948,2.14-15.286c1.323-6.42,1.987-10.853,1.987-13.299c0-1.629-0.561-2.445-1.682-2.445
		c-1.325,0-3.21,1.708-5.655,5.121c-2.446,3.416-4.892,7.925-7.337,13.528c-2.446,5.605-4.433,11.517-5.961,17.731
		c-1.123,4.892-2.422,8.154-3.898,9.783c-1.479,1.631-3.848,2.446-7.108,2.446c-3.363,0-5.885-1.605-7.566-4.815
		s-2.522-7.108-2.522-11.693c0-3.872,0.509-9.478,1.528-16.814c0.814-6.521,1.223-10.8,1.223-12.84c0-1.629-0.562-2.445-1.682-2.445
		c-1.528,0-3.465,1.834-5.809,5.502c-2.345,3.669-4.612,8.357-6.802,14.063c-2.192,5.708-3.95,11.312-5.273,16.814
		c-1.123,4.791-2.422,8.025-3.898,9.707c-1.479,1.681-3.797,2.522-6.955,2.522C157.084,145.448,154.359,143.411,152.78,139.334z"/>
	<path fill="#3A3F48" d="M348.589,112.431c0.765,1.223,1.146,2.904,1.146,5.044c0,4.077-0.97,7.237-2.904,9.477
		c-4.383,5.402-9.095,9.835-14.14,13.298c-5.044,3.466-10.776,5.197-17.196,5.197c-5.402,0-9.783-1.935-13.146-5.809
		c-5.809,3.771-11.873,5.706-18.19,5.809c-1.325,19.667-4.333,36.098-9.019,49.296c-4.688,13.196-11.567,19.795-20.636,19.795
		c-5.503,0-9.577-1.986-12.229-5.961c-2.648-3.975-3.974-9.478-3.974-16.509c0-9.988,2.293-21.629,6.878-34.928
		c4.586-13.299,11.667-27.947,21.247-43.947c0-14.877-0.103-25.221-0.306-31.03c-0.103-2.955,1.07-5.298,3.516-7.032
		c2.445-1.731,5.502-2.599,9.171-2.599c2.14,0,3.692,0.435,4.662,1.299c0.967,0.867,1.502,2.575,1.605,5.121
		c0,2.549,0.05,4.433,0.153,5.656c3.26-4.074,6.47-7.005,9.63-8.789c3.158-1.782,6.521-2.675,10.089-2.675
		c5.706,0,10.368,2.293,13.986,6.879c3.616,4.585,5.427,10.6,5.427,18.037c0,5.402-0.867,10.65-2.599,15.744
		c-1.734,5.097-4.127,9.733-7.185,13.91c2.14,0.611,3.922,0.917,5.35,0.917c3.363,0,6.573-1.223,9.63-3.669
		c3.057-2.446,6.979-6.52,11.77-12.229c1.223-1.426,2.599-2.14,4.127-2.14C346.778,110.597,347.824,111.208,348.589,112.431z
		 M262.606,181.599c1.834-11.976,3.005-26.879,3.516-44.711c-4.382,10.189-7.848,19.922-10.394,29.196
		c-2.546,9.271-3.822,17.067-3.822,23.387c0,3.261,0.382,5.756,1.146,7.49c0.765,1.731,1.658,2.599,2.675,2.599
		C258.479,199.56,260.772,193.572,262.606,181.599z M295.089,124.736c3.107-3.21,5.579-7.185,7.414-11.923
		c1.834-4.739,2.751-9.707,2.751-14.904c0-3.057-0.612-5.374-1.834-6.955c-1.223-1.579-2.854-2.369-4.892-2.369
		c-3.668,0-8.101,3.874-13.298,11.617c-0.103,4.485-0.153,11.058-0.153,19.719c0,4.688-0.053,8.307-0.153,10.853
		C288.592,129.959,291.979,127.946,295.089,124.736z"/>
	<path fill="#3A3F48" d="M398.418,112.431c0.765,1.223,1.146,2.904,1.146,5.044c0,4.077-0.97,7.237-2.904,9.477
		c-4.382,5.402-9.147,9.835-14.292,13.298c-5.146,3.466-10.981,5.197-17.502,5.197c-8.969,0-15.618-4.075-19.948-12.229
		c-4.332-8.151-6.496-18.699-6.496-31.642c0-12.432,1.604-26.597,4.815-42.494c3.21-15.897,7.948-29.552,14.215-40.966
		c6.268-11.412,13.731-17.12,22.395-17.12c4.891,0,8.736,2.269,11.54,6.802c2.802,4.535,4.204,11.032,4.204,19.489
		c0,12.128-3.363,26.191-10.089,42.188c-6.726,16-15.847,31.847-27.361,47.539c0.712,4.18,1.884,7.16,3.516,8.942
		c1.629,1.784,3.769,2.675,6.42,2.675c4.178,0,7.846-1.197,11.006-3.592c3.157-2.393,7.185-6.497,12.075-12.305
		c1.224-1.426,2.599-2.14,4.128-2.14C396.608,110.597,397.654,111.208,398.418,112.431z M368.535,28.818
		c-2.957,8.46-5.556,18.955-7.796,31.489c-2.243,12.534-3.466,24.56-3.669,36.074c7.234-11.923,12.993-23.87,17.273-35.845
		c4.279-11.973,6.42-22.902,6.42-32.788c0-7.743-1.429-11.617-4.28-11.617C374.138,16.131,371.489,20.361,368.535,28.818z"/>
	<path fill="#3A3F48" d="M391.538,138.417c-3.007-4.686-4.509-10.903-4.509-18.649c0-4.585,0.585-10.471,1.758-17.655
		c1.17-7.185,2.675-13.884,4.509-20.101c0.917-3.26,2.141-5.503,3.669-6.726c1.528-1.223,3.975-1.834,7.337-1.834
		c5.197,0,7.796,1.734,7.796,5.197c0,2.549-0.97,8.46-2.904,17.731c-2.445,11.211-3.669,18.802-3.669,22.776
		c0,3.057,0.406,5.403,1.224,7.032c0.814,1.631,2.189,2.446,4.127,2.446c1.834,0,4.127-1.273,6.878-3.822
		c2.752-2.546,6.421-6.573,11.006-12.076c1.224-1.426,2.599-2.14,4.128-2.14c1.323,0,2.369,0.612,3.133,1.834
		c0.765,1.223,1.146,2.904,1.146,5.044c0,4.077-0.97,7.237-2.904,9.477c-10.088,12.331-19.516,18.496-28.278,18.496
		C399.358,145.448,394.543,143.105,391.538,138.417z M397.576,60.383c-2.14-1.987-3.21-4.763-3.21-8.331
		c0-3.566,1.399-6.546,4.203-8.942c2.802-2.394,6.291-3.592,10.472-3.592c3.769,0,6.825,0.917,9.171,2.751
		c2.343,1.834,3.516,4.433,3.516,7.796c0,4.077-1.325,7.313-3.975,9.706c-2.65,2.396-6.166,3.592-10.547,3.592
		C402.926,63.364,399.716,62.37,397.576,60.383z"/>
	<path fill="#3A3F48" d="M430.668,136.965c-5.556-5.656-8.331-13.12-8.331-22.394c0-8.254,1.629-15.489,4.892-21.706
		c3.26-6.214,7.489-11.006,12.687-14.369s10.647-5.044,16.356-5.044c5.603,0,9.959,1.657,13.069,4.968
		c3.107,3.313,4.662,7.566,4.662,12.764c0,4.28-0.943,7.898-2.828,10.853c-1.887,2.957-4.356,4.433-7.414,4.433
		c-1.937,0-3.491-0.458-4.662-1.376c-1.172-0.917-1.758-2.19-1.758-3.821c0-0.712,0.101-1.528,0.306-2.446
		c0.203-0.917,0.356-1.579,0.459-1.987c0.509-1.529,0.765-2.955,0.765-4.28c0-1.323-0.332-2.343-0.994-3.057
		c-0.664-0.712-1.604-1.07-2.828-1.07c-2.345,0-4.535,1.046-6.572,3.133c-2.04,2.09-3.669,4.918-4.892,8.484
		c-1.223,3.568-1.834,7.49-1.834,11.77c0,11.822,5.145,17.731,15.438,17.731c4.177,0,8.687-1.4,13.527-4.204
		c4.839-2.802,9.604-7.005,14.293-12.611c1.223-1.426,2.599-2.14,4.127-2.14c1.323,0,2.369,0.612,3.134,1.834
		c0.764,1.223,1.146,2.904,1.146,5.044c0,3.874-0.97,7.031-2.904,9.477c-4.792,5.911-10.523,10.471-17.197,13.681
		c-6.675,3.21-13.121,4.815-19.336,4.815C443.99,145.448,436.221,142.621,430.668,136.965z"/>
	<path fill="#3A3F48" d="M485.39,138.417c-3.007-4.686-4.509-10.903-4.509-18.649c0-4.585,0.585-10.471,1.758-17.655
		c1.17-7.185,2.675-13.884,4.509-20.101c0.917-3.26,2.141-5.503,3.669-6.726c1.528-1.223,3.975-1.834,7.337-1.834
		c5.197,0,7.796,1.734,7.796,5.197c0,2.549-0.97,8.46-2.904,17.731c-2.445,11.211-3.669,18.802-3.669,22.776
		c0,3.057,0.406,5.403,1.224,7.032c0.814,1.631,2.189,2.446,4.127,2.446c1.834,0,4.127-1.273,6.878-3.822
		c2.752-2.546,6.421-6.573,11.006-12.076c1.224-1.426,2.599-2.14,4.128-2.14c1.323,0,2.369,0.612,3.133,1.834
		c0.765,1.223,1.146,2.904,1.146,5.044c0,4.077-0.97,7.237-2.904,9.477c-10.088,12.331-19.516,18.496-28.278,18.496
		C493.21,145.448,488.395,143.105,485.39,138.417z M491.428,60.383c-2.14-1.987-3.21-4.763-3.21-8.331
		c0-3.566,1.399-6.546,4.203-8.942c2.802-2.394,6.291-3.592,10.472-3.592c3.769,0,6.825,0.917,9.171,2.751
		c2.343,1.834,3.516,4.433,3.516,7.796c0,4.077-1.325,7.313-3.975,9.706c-2.65,2.396-6.166,3.592-10.547,3.592
		C496.777,63.364,493.567,62.37,491.428,60.383z"/>
	<path fill="#3A3F48" d="M589.943,112.431c0.764,1.223,1.146,2.904,1.146,5.044c0,4.077-0.97,7.237-2.904,9.477
		c-4.383,5.402-9.172,9.835-14.369,13.298c-5.197,3.466-11.158,5.197-17.884,5.197c-20.789,0-31.184-14.622-31.184-43.87
		c0-4.483,0.153-9.019,0.459-13.604h-5.962c-3.057,0-5.12-0.559-6.19-1.682c-1.07-1.12-1.604-2.904-1.604-5.35
		c0-5.706,2.292-8.56,6.878-8.56h8.713c1.731-11.208,4.381-21.45,7.949-30.724c3.565-9.272,7.872-16.662,12.916-22.165
		s10.471-8.254,16.279-8.254c4.28,0,7.643,1.887,10.089,5.656c2.445,3.771,3.668,8.51,3.668,14.216
		c0,15.797-6.625,29.554-19.871,41.271h17.12c1.629,0,2.802,0.358,3.516,1.07c0.712,0.714,1.07,2.04,1.07,3.974
		c0,7.031-5.759,10.547-17.273,10.547h-18.648c-0.205,5.097-0.306,9.071-0.306,11.923c0,10.6,1.247,18.037,3.745,22.317
		c2.496,4.28,6.443,6.42,11.847,6.42c4.38,0,8.254-1.323,11.617-3.975c3.362-2.648,7.337-6.623,11.923-11.923
		c1.223-1.426,2.599-2.14,4.127-2.14C588.133,110.597,589.179,111.208,589.943,112.431z M554.938,31.646
		c-1.887,3.821-3.668,9.121-5.35,15.897c-1.682,6.778-3.084,14.292-4.204,22.546c6.012-5.197,10.521-11.029,13.528-17.502
		c3.005-6.47,4.509-12.355,4.509-17.655c0-6.011-1.122-9.019-3.362-9.019C558.531,25.914,556.823,27.824,554.938,31.646z"/>
	<path fill="#3A3F48" d="M637.098,74.37c0.917,0.611,1.376,1.631,1.376,3.057c0,2.446-1.325,11.159-3.975,26.139
		c-2.345,14.369-3.721,22.878-4.127,25.527c-3.771,26.189-8.969,46.927-15.592,62.212c-6.625,15.286-15.438,22.929-26.444,22.929
		c-5.196,0-9.427-1.604-12.687-4.814c-3.263-3.21-4.892-7.414-4.892-12.611c0-4.791,1.094-9.683,3.286-14.674
		c2.19-4.994,6.268-10.727,12.229-17.196c5.962-6.473,14.393-13.887,25.298-22.241l0.459-3.516
		c0.712-3.769,1.528-9.171,2.445-16.203c-2.039,7.337-4.891,12.916-8.56,16.738c-3.669,3.821-7.543,5.732-11.617,5.732
		c-4.586,0-8.331-2.114-11.235-6.343c-2.904-4.228-4.356-9.501-4.356-15.821c0-7.643,0.509-14.648,1.529-21.018
		c1.017-6.368,2.698-13.12,5.044-20.253c1.018-3.058,2.445-5.248,4.28-6.573c1.834-1.323,4.738-1.987,8.713-1.987
		c2.24,0,3.795,0.358,4.662,1.07c0.864,0.714,1.299,1.784,1.299,3.21c0,0.817-0.562,3.568-1.682,8.254
		c-1.02,3.771-1.834,7.184-2.445,10.241c-0.817,4.18-1.528,8.178-2.14,12c-0.612,3.821-0.918,6.955-0.918,9.401
		c0,3.874,1.07,5.809,3.21,5.809c1.529,0,3.439-1.529,5.732-4.586s4.738-7.693,7.337-13.91c2.599-6.214,5.121-13.857,7.566-22.928
		c0.814-3.058,2.064-5.248,3.745-6.573c1.682-1.323,4.204-1.987,7.566-1.987C634.55,73.453,636.181,73.758,637.098,74.37z
		 M598.578,190.542c3.157-5.911,6.317-15.744,9.477-29.502c-7.848,6.623-13.527,12.661-17.043,18.114
		c-3.516,5.45-5.274,10.215-5.274,14.292c0,1.731,0.33,3.157,0.994,4.28c0.661,1.12,1.758,1.681,3.286,1.681
		C592.563,199.407,595.418,196.451,598.578,190.542z"/>
</g>
<g>
</g>
<g>
</g>
<g>
</g>
<g>
</g>
<g>
</g>
<g>
</g>
<g>
</g>
<g>
</g>
<g>
</g>
<g>
</g>
<g>
</g>
<g>
</g>
<g>
</g>
<g>
</g>
<g>
</g>
</svg>
